Coordinates
version=1
nRows=7
nColumns=60
inDegrees=yes

Units are S.I. units (second, meters, Newtons, ...)
If the header above contains a line with 'inDegrees', this indicates whether rotational values are in degrees (yes) or radians (no).

endheader
time	pelvis_tilt	pelvis_list	pelvis_rotation	pelvis_tx	pelvis_ty	pelvis_tz	hip_flexion_r	hip_adduction_r	hip_rotation_r	knee_angle_r_beta	knee_angle_r	ankle_angle_r	subtalar_angle_r	mtp_angle_r	hip_flexion_l	hip_adduction_l	hip_rotation_l	knee_angle_l_beta	knee_angle_l	ankle_angle_l	subtalar_angle_l	mtp_angle_l	L5_S1_Flex_Ext	L5_S1_Lat_Bending	L5_S1_axial_rotation	L4_L5_Flex_Ext	L4_L5_Lat_Bending	L4_L5_axial_rotation	L3_L4_Flex_Ext	L3_L4_Lat_Bending	L3_L4_axial_rotation	L2_L3_Flex_Ext	L2_L3_Lat_Bending	L2_L3_axial_rotation	L1_L2_Flex_Ext	L1_L2_Lat_Bending	L1_L2_axial_rotation	L1_T12_Flex_Ext	L1_T12_Lat_Bending	L1_T12_axial_rotation	Abs_r3	Abs_r2	Abs_r1	Abs_t1	Abs_t2	arm_flex_r	arm_add_r	arm_rot_r	elbow_flex_r	pro_sup_r	wrist_flex_r	wrist_dev_r	arm_flex_l	arm_add_l	arm_rot_l	elbow_flex_l	pro_sup_l	wrist_flex_l	wrist_dev_l
     39.06000000	      0.40970355	     12.89647550	     90.36801893	      0.40700619	      0.94161350	      0.30126317	     -0.42856632	     -4.38163814	      0.44952308	      0.32241861	    -18.47322532	      9.37489142	      0.00000000	      0.00000000	     -0.84686806	     -6.56285547	     -3.35622161	      0.29414148	    -16.85306559	      9.92807974	      0.00000000	      0.00000000	     -7.56359896	     -0.00455543	     -0.34422346	    -14.04635962	     -0.00605872	     -0.36573743	    -12.42623672	     -0.01107607	     -0.36573743	     -8.64443725	     -0.01107607	     -0.30119553	     -7.02355799	     -0.00928943	     -0.27968156	     -4.32184044	     -0.00705636	     -0.25816760	    -54.02603098	     -0.05153191	     -1.91446762	      0.00000000	      0.00000000	     20.20012793	    -30.91362007	     10.70142459	     95.46743462	     61.02547691	     -3.00999536	     38.42035748	     16.31134717	    -28.11436822	      2.02635570	     95.29241451	     72.68291773	     10.30569075	     28.39932749
     39.07000000	      0.37685749	     13.02867637	     90.38299016	      0.40706484	      0.94207833	      0.29875873	     -0.90962774	     -4.41835625	      0.33067651	      0.31726890	    -18.17816907	      9.49390757	      0.00000000	      0.00000000	     -1.34719581	     -6.52877564	     -3.47829643	      0.28865686	    -16.53882003	     10.10316953	      0.00000000	      0.00000000	     -7.43573587	     -0.00500475	     -0.34754211	    -13.80890509	     -0.00665632	     -0.36926349	    -12.21617047	     -0.01216856	     -0.36926349	     -8.49830253	     -0.01216856	     -0.30409934	     -6.90482433	     -0.01020569	     -0.28237796	     -4.24877948	     -0.00775236	     -0.26065658	    -53.11271777	     -0.05661478	     -1.93292493	      0.00000000	      0.00000000	     20.03012128	    -31.06325391	     10.66696581	     95.63496577	     60.98428144	     -3.00112624	     38.42434529	     16.13571145	    -28.17925886	      2.08998848	     95.53214280	     72.65759977	     10.25165955	     28.43758914
     39.08000000	      0.34851730	     13.22144495	     90.40817445	      0.40713540	      0.94256950	      0.29643233	     -1.37545527	     -4.44436357	      0.30338697	      0.31491339	    -18.04320825	      9.54479560	      0.00000000	      0.00000000	     -1.82685818	     -6.50671962	     -3.52627313	      0.28593271	    -16.38273733	     10.18377727	      0.00000000	      0.00000000	     -7.32394214	     -0.00406296	     -0.35410975	    -13.60129295	     -0.00540374	     -0.37624160	    -12.03250455	     -0.00987868	     -0.37624160	     -8.37053348	     -0.00987868	     -0.30984603	     -6.80101267	     -0.00828519	     -0.28771417	     -4.18490054	     -0.00629352	     -0.26558231	    -52.31418634	     -0.04596101	     -1.96945217	      0.00000000	      0.00000000	     19.95633137	    -31.14363956	     10.59862731	     95.76468525	     60.94078895	     -2.99503844	     38.42452893	     16.05628284	    -28.23606956	      2.13330672	     95.68778552	     72.63187088	     10.21763757	     28.46402616
     39.09000000	      0.25707887	     13.67278894	     90.42398571	      0.40728089	      0.94353917	      0.29413739	     -2.38623828	     -4.51592812	      0.34058347	      0.30288005	    -17.35374881	      9.63800754	      0.00000000	      0.00000000	     -2.88205220	     -6.38580834	     -3.47413039	      0.27241739	    -15.60836646	     10.25083609	      0.00000000	      0.00000000	     -7.26132012	     -0.01036314	     -0.34748097	    -13.48499760	     -0.01378298	     -0.36919853	    -11.92962283	     -0.02519694	     -0.36919853	     -8.29896277	     -0.02519694	     -0.30404585	     -6.74286187	     -0.02113252	     -0.28232829	     -4.14911832	     -0.01605251	     -0.26061073	    -51.86688351	     -0.11722993	     -1.93258491	      0.00000000	      0.00000000	     19.92049427	    -31.13101367	     10.27768442	     95.86607882	     60.57121992	     -2.92928330	     38.39109154	     16.33597380	    -28.36242764	      2.40132377	     95.73507695	     72.40482389	      9.96241444	     28.65410802
     39.10000000	      0.24585623	     13.81840325	     90.42808057	      0.40743249	      0.94386995	      0.29240171	     -2.66248708	     -4.51899524	      0.32493771	      0.30367035	    -17.39902952	      9.62835123	      0.00000000	      0.00000000	     -3.16557182	     -6.39144266	     -3.49616438	      0.27317910	    -15.65200937	     10.23968638	      0.00000000	      0.00000000	     -7.16939665	     -0.00848038	     -0.35122067	    -13.31428652	     -0.01127891	     -0.37317196	    -11.77860176	     -0.02061920	     -0.37317196	     -8.19390343	     -0.02061920	     -0.30731809	     -6.65750173	     -0.01729319	     -0.28536680	     -4.09659325	     -0.01313611	     -0.26341550	    -51.21028333	     -0.09593177	     -1.95338401	      0.00000000	      0.00000000	     20.08620837	    -31.17824396	     10.18333839	     96.00995902	     60.56702810	     -2.92624843	     38.38053058	     16.50897118	    -28.42438049	      2.33358629	     95.89304212	     72.40330161	      9.95741556	     28.64725615
     39.11000000	      0.21908042	     13.91857582	     90.51316432	      0.40744865	      0.94411400	      0.29019988	     -3.12627076	     -4.54542557	      0.03498458	      0.29733539	    -17.03606281	      9.82903459	      0.00000000	      0.00000000	     -3.61758156	     -6.38875372	     -3.79734072	      0.26586058	    -15.23268915	     10.35564377	      0.00000000	      0.00000000	     -7.05694188	     -0.00104151	     -0.37254056	    -13.10544676	     -0.00138520	     -0.39582435	    -11.59384981	     -0.00253232	     -0.39582435	     -8.06537887	     -0.00253232	     -0.32597299	     -6.55307623	     -0.00212384	     -0.30268921	     -4.03233659	     -0.00161329	     -0.27940542	    -50.40703013	     -0.01178174	     -2.07195884	      0.00000000	      0.00000000	     20.09813591	    -31.06706301	     10.01600417	     96.13150282	     60.43639617	     -2.89598955	     38.33994962	     16.60746546	    -28.56371400	      2.52693343	     95.81538109	     72.31689278	      9.88270799	     28.72269090
     39.12000000	      0.20585074	     14.05011025	     90.52041044	      0.40760382	      0.94431893	      0.28861058	     -3.38071414	     -4.55578574	      0.02433276	      0.29790968	    -17.06896740	      9.82309096	      0.00000000	      0.00000000	     -3.87592197	     -6.39825696	     -3.80173621	      0.26642010	    -15.26474757	     10.34054878	      0.00000000	      0.00000000	     -6.97484827	      0.00066175	     -0.37359284	    -12.95299073	      0.00088013	     -0.39694239	    -11.45897823	      0.00160898	     -0.39694239	     -7.97155409	      0.00160898	     -0.32689373	     -6.47684411	      0.00134944	     -0.30354418	     -3.98542830	      0.00102505	     -0.28019463	    -49.82064374	      0.00748587	     -2.07781128	      0.00000000	      0.00000000	     20.30142296	    -31.09833793	      9.90779887	     96.25194221	     60.42973483	     -2.89248940	     38.32484288	     16.83782887	    -28.62601385	      2.44744912	     95.95524425	     72.31260610	      9.87670157	     28.71571186
